<svg width="25" height="25" viewBox="0 0 25 25" fill="none" xmlns="http://www.w3.org/2000/svg">
<path d="M3.125 21.875L3.125 3.12496C3.125 2.84869 3.23475 2.58374 3.4301 2.38839C3.62545 2.19304 3.8904 2.08329 4.16667 2.08329H20.8333C21.1096 2.08329 21.3746 2.19304 21.5699 2.38839C21.7653 2.58374 21.875 2.84869 21.875 3.12496V21.875C21.875 22.1512 21.7653 22.4162 21.5699 22.6115C21.3746 22.8069 21.1096 22.9166 20.8333 22.9166H4.16667C3.8904 22.9166 3.62545 22.8069 3.4301 22.6115C3.23475 22.4162 3.125 22.1512 3.125 21.875ZM5.20833 15.625H19.7917V4.16662H5.20833L5.20833 15.625Z" fill="#221F1B"/>
</svg>
