<svg width="12" height="12" viewBox="0 0 12 12" fill="none" xmlns="http://www.w3.org/2000/svg">
<path d="M11 6C11 8.7615 8.7615 11 6 11C3.2385 11 1 8.7615 1 6C1 3.2385 3.2385 1 6 1V2C5.05938 2.00007 4.14887 2.33163 3.42846 2.93641C2.70804 3.5412 2.2238 4.38052 2.06082 5.30691C1.89784 6.2333 2.06654 7.1875 2.53728 8.00185C3.00803 8.8162 3.7507 9.4386 4.63481 9.75971C5.51892 10.0808 6.48792 10.0801 7.37154 9.75762C8.25517 9.43517 8.99689 8.81164 9.46639 7.99657C9.9359 7.18151 10.1031 6.22705 9.93875 5.30091C9.77435 4.37477 9.28884 3.53619 8.5675 2.9325L7.5 4V1H10.5L9.2765 2.2235C9.818 2.6924 10.2522 3.27238 10.5496 3.92402C10.847 4.57567 11.0006 5.2837 11 6Z" fill="#221F1B"/>
</svg>
