<svg width="22" height="22" viewBox="0 0 22 22" fill="none" xmlns="http://www.w3.org/2000/svg">
<path d="M5.18204 3.88996L12.2574 10.9654L10.9653 12.2574L7.81646 9.10855C7.41193 9.7944 7.24243 10.5936 7.33374 11.3846C7.42505 12.1756 7.77216 12.9152 8.32231 13.4908C8.87246 14.0665 9.59553 14.4467 10.3816 14.5738C11.1677 14.7008 11.9737 14.5677 12.6772 14.1946C13.3807 13.8216 13.9431 13.229 14.2789 12.507C14.6147 11.7851 14.7056 10.9732 14.5377 10.1948C14.3698 9.41643 13.9523 8.71418 13.3487 8.19483C12.7452 7.67548 11.9885 7.36744 11.1938 7.31754L9.54533 5.66817C10.792 5.33387 12.1165 5.45008 13.2859 5.99634C14.4553 6.5426 15.3944 7.48388 15.9381 8.65448C16.4817 9.82507 16.5949 11.1499 16.2578 12.3958C15.9207 13.6416 15.1548 14.7286 14.0951 15.4654C13.0354 16.2021 11.7497 16.5414 10.4645 16.4235C9.17921 16.3056 7.97675 15.738 7.0688 14.8207C6.16084 13.9034 5.6056 12.6952 5.50084 11.4088C5.39607 10.1224 5.74849 8.84026 6.49605 7.78814L5.19026 6.48235C4.10056 7.88715 3.56017 9.64092 3.67022 11.4154C3.78027 13.1899 4.53323 14.8634 5.78815 16.1228C7.04308 17.3822 8.71395 18.1411 10.488 18.2575C12.2621 18.3738 14.0178 17.8396 15.4265 16.7549C16.8351 15.6702 17.8002 14.1094 18.1411 12.3644C18.4819 10.6195 18.1752 8.81021 17.2783 7.27512C16.3814 5.74003 14.9558 4.58441 13.2684 4.02456C11.581 3.46471 9.74732 3.539 8.1107 4.23354L6.7382 2.86195C8.04287 2.18039 9.49338 1.82545 10.9653 1.82755C16.0122 1.82755 20.1031 5.91855 20.1031 10.9654C20.1031 16.0122 16.0122 20.1031 10.9653 20.1031C5.91854 20.1031 1.82755 16.0122 1.82755 10.9654C1.82617 9.61091 2.12651 8.27316 2.70675 7.0493C3.28699 5.82544 4.13256 4.74619 5.18204 3.88996Z" fill="#221F1B"/>
</svg>
