<svg width="25" height="25" viewBox="0 0 25 25" fill="none" xmlns="http://www.w3.org/2000/svg">
<path d="M3.03611 3.0361H21.2527C21.5211 3.0361 21.7785 3.14273 21.9683 3.33252C22.1581 3.52231 22.2647 3.77973 22.2647 4.04814V20.2407C22.2647 20.5091 22.1581 20.7665 21.9683 20.9563C21.7785 21.1461 21.5211 21.2527 21.2527 21.2527H3.03611C2.7677 21.2527 2.51029 21.1461 2.3205 20.9563C2.1307 20.7665 2.02408 20.5091 2.02408 20.2407V4.04814C2.02408 3.77973 2.1307 3.52231 2.3205 3.33252C2.51029 3.14273 2.7677 3.0361 3.03611 3.0361ZM9.10831 5.06017V19.2286H20.2407V5.06017H9.10831Z" fill="#221F1B"/>
</svg>
