<svg width="16" height="16" viewBox="0 0 16 16" fill="none" xmlns="http://www.w3.org/2000/svg">
<g clip-path="url(#clip0_82_83)">
<path d="M5.03154 4.74047L5.04797 12.1377C5.05082 12.2944 5.09464 12.4476 5.17506 12.5821C5.25549 12.7166 5.36972 12.8276 5.50639 12.9043C5.64307 12.9809 5.79742 13.0204 5.95411 13.0189C6.11079 13.0173 6.26434 12.9748 6.39949 12.8955L12.9132 8.97454C13.0464 8.89222 13.1558 8.77646 13.2305 8.63878C13.3051 8.50109 13.3424 8.34626 13.3387 8.18969C13.335 8.03311 13.2903 7.88023 13.2092 7.74624C13.1281 7.61226 13.0134 7.50183 12.8764 7.42594L6.34657 3.94833C6.20999 3.87649 6.05718 3.84108 5.90292 3.84552C5.74865 3.84997 5.59814 3.89412 5.46592 3.97371C5.3337 4.0533 5.22424 4.16565 5.1481 4.29989C5.07197 4.43413 5.03174 4.58574 5.0313 4.74007L5.03154 4.74047Z" stroke="white" stroke-width="1.3" stroke-linecap="round" stroke-linejoin="round"/>
</g>
<defs>
<clipPath id="clip0_82_83">
<rect width="11.2536" height="11.2536" fill="white" transform="translate(0 5.80383) rotate(-31.0461)"/>
</clipPath>
</defs>
</svg>
