<svg width="10" height="10" viewBox="0 0 10 10" fill="none" xmlns="http://www.w3.org/2000/svg">
<path d="M0 8.385V1.615C0 1.16833 0.157333 0.787333 0.472 0.472C0.786667 0.157333 1.168 0 1.616 0H8.385C8.83167 0 9.21267 0.157333 9.528 0.472C9.84267 0.786667 10 1.168 10 1.616V8.385C10 8.83167 9.84267 9.21267 9.528 9.528C9.21333 9.84267 8.83233 10 8.385 10H1.615C1.16833 10 0.787333 9.84267 0.472 9.528C0.157333 9.21333 0 8.83233 0 8.385ZM1.81421 8.827H8.212C8.39133 8.827 8.53867 8.76933 8.654 8.654C8.76933 8.53867 8.827 8.39133 8.827 8.212V1.69932C8.827 1.51999 8.76933 1.37266 8.654 1.25732C8.53867 1.14199 8.39133 1.08432 8.212 1.08432L1.81421 1.173C1.63488 1.173 1.48754 1.23067 1.37221 1.346C1.25688 1.46133 1.19921 1.609 1.19921 1.789L1.19821 8.212C1.19821 8.39133 1.25588 8.53867 1.37121 8.654C1.48654 8.76933 1.63421 8.827 1.81421 8.827Z" fill="white"/>
</svg>
